<svg width="23" height="22" viewBox="0 0 23 22" fill="none" xmlns="http://www.w3.org/2000/svg">
<path d="M21.8791 15.0794H6.75899L7.51817 13.4736L20.1322 13.4499C20.5588 13.4499 20.9244 13.1335 21.0006 12.6958L22.7475 2.5418C22.7932 2.27549 22.7246 2.00127 22.5571 1.79297C22.4742 1.69045 22.3709 1.60788 22.2543 1.55096C22.1377 1.49405 22.0105 1.46416 21.8817 1.46338L5.83477 1.40801L5.69766 0.738281C5.61133 0.311133 5.24063 0 4.81915 0H0.89629C0.658579 0 0.430604 0.098062 0.262517 0.272614C0.0944303 0.447165 0 0.683908 0 0.930762C0 1.17762 0.0944303 1.41436 0.262517 1.58891C0.430604 1.76346 0.658579 1.86152 0.89629 1.86152H4.09297L4.69219 4.81992L6.16739 12.237L4.26817 15.4564C4.16954 15.5947 4.11013 15.7588 4.09667 15.9303C4.08321 16.1018 4.11623 16.2738 4.192 16.4268C4.34434 16.7405 4.65157 16.9383 4.9918 16.9383H6.58633C6.2464 17.4071 6.06279 17.9782 6.06329 18.5651C6.06329 20.0575 7.23126 21.2704 8.66837 21.2704C10.1055 21.2704 11.2734 20.0575 11.2734 18.5651C11.2734 17.9771 11.0856 17.405 10.7504 16.9383H14.8408C14.5009 17.4071 14.3173 17.9782 14.3178 18.5651C14.3178 20.0575 15.4858 21.2704 16.9229 21.2704C18.36 21.2704 19.5279 20.0575 19.5279 18.5651C19.5279 17.9771 19.3401 17.405 19.0049 16.9383H21.8817C22.3742 16.9383 22.778 16.5217 22.778 16.0075C22.7765 15.7609 22.6811 15.5249 22.5128 15.3511C22.3444 15.1772 22.1166 15.0795 21.8791 15.0794V15.0794ZM6.20801 3.24316L20.8279 3.29326L19.3959 11.62L7.91173 11.6411L6.20801 3.24316ZM8.66837 19.3983C8.22657 19.3983 7.86602 19.0239 7.86602 18.5651C7.86602 18.1063 8.22657 17.7319 8.66837 17.7319C9.11016 17.7319 9.47071 18.1063 9.47071 18.5651C9.47071 18.7861 9.38618 18.998 9.23571 19.1543C9.08524 19.3106 8.88116 19.3983 8.66837 19.3983V19.3983ZM16.9229 19.3983C16.4811 19.3983 16.1205 19.0239 16.1205 18.5651C16.1205 18.1063 16.4811 17.7319 16.9229 17.7319C17.3647 17.7319 17.7252 18.1063 17.7252 18.5651C17.7252 18.7861 17.6407 18.998 17.4902 19.1543C17.3397 19.3106 17.1357 19.3983 16.9229 19.3983V19.3983Z" fill="#B08EAD"/>
</svg>
